<?xml version="1.0" encoding="utf-8"?>
<!-- Generator: Adobe Illustrator 24.3.0, SVG Export Plug-In . SVG Version: 6.00 Build 0)  -->
<svg version="1.1" id="Layer_4" xmlns="http://www.w3.org/2000/svg" xmlns:xlink="http://www.w3.org/1999/xlink" x="0px" y="0px"
	 viewBox="0 0 800 72" enable-background="new 0 0 800 72" xml:space="preserve">
<g opacity="0.72">
	<path fill="#FFFFFF" d="M57.171,67.622V45.547c0-2.729,0.092-5.532,0.28-8.412c0.187-2.877,0.387-5.296,0.601-7.254
		c0.213-1.958,0.347-3.204,0.401-3.738h-0.321L47.958,67.622h-13.86L23.845,26.231h-0.321c0.053,0.534,0.201,1.767,0.441,3.694
		c0.24,1.929,0.467,4.333,0.681,7.21c0.213,2.879,0.321,5.683,0.321,8.412v22.075H8.703V6.382h24.995L42.03,41.72h0.32l8.251-35.338
		h24.113v61.24H57.171z"/>
	<path fill="#FFFFFF" d="M205.693,35.31c-1.816,3.026-4.46,5.252-7.931,6.676L210.02,67.62h-19.868l-9.773-22.342h-6.569V67.62
		h-17.705V6.382h33.727c3.952,0,7.33,0.846,10.134,2.537s4.913,3.977,6.329,6.854c1.415,2.879,2.123,6.008,2.123,9.391
		C208.418,28.902,207.51,32.284,205.693,35.31z M188.951,21.959c-0.961-1.068-2.137-1.602-3.525-1.602H173.81v11.304h11.616
		c1.388,0,2.564-0.548,3.525-1.646s1.442-2.448,1.442-4.05C190.393,24.362,189.911,23.027,188.951,21.959z"/>
	<path fill="#FFFFFF" d="M266.818,62.103c-4.754,4.392-11.51,6.587-20.268,6.587c-8.76,0-15.529-2.195-20.308-6.587
		c-4.78-4.391-7.17-10.771-7.17-19.138V6.382h17.705v36.317c0,3.442,0.827,6.187,2.483,8.233c1.655,2.047,4.058,3.071,7.21,3.071
		c3.15,0,5.567-1.038,7.25-3.116c1.682-2.076,2.523-4.807,2.523-8.189V6.382h17.705v36.584
		C273.948,51.333,271.572,57.712,266.818,62.103z"/>
	<path fill="#FFFFFF" d="M337.314,35.31c-1.816,3.026-4.46,5.252-7.931,6.676L341.64,67.62h-19.867L312,45.279h-6.569V67.62h-17.705
		V6.382h33.727c3.952,0,7.33,0.846,10.134,2.537c2.804,1.691,4.913,3.977,6.329,6.854c1.415,2.879,2.123,6.008,2.123,9.391
		C340.038,28.902,339.13,32.284,337.314,35.31z M320.572,21.959c-0.961-1.068-2.137-1.602-3.525-1.602h-11.616v11.304h11.616
		c1.388,0,2.564-0.548,3.525-1.646s1.442-2.448,1.442-4.05C322.013,24.362,321.533,23.027,320.572,21.959z"/>
	<path fill="#FFFFFF" d="M400.121,13.413c5.18,5.401,7.771,13.263,7.771,23.588s-2.591,18.189-7.771,23.588
		c-5.181,5.4-12.525,8.1-22.03,8.1c-9.507,0-16.837-2.685-21.991-8.056c-5.154-5.37-7.73-13.248-7.73-23.633
		c0-10.384,2.576-18.261,7.73-23.633c5.154-5.37,12.484-8.056,21.991-8.056C387.596,5.313,394.941,8.014,400.121,13.413z
		 M369.439,23.828c-1.977,2.552-2.964,5.995-2.964,10.325v5.697c0,4.333,0.988,7.775,2.964,10.326
		c1.975,2.552,4.859,3.828,8.652,3.828c3.792,0,6.689-1.275,8.692-3.828c2.003-2.551,3.004-5.993,3.004-10.326v-5.697
		c0-4.331-1.001-7.773-3.004-10.325c-2.003-2.551-4.9-3.828-8.692-3.828C374.298,20,371.414,21.277,369.439,23.828z"/>
	<path fill="#FFFFFF" d="M453.635,67.622l-2.323-8.634h-19.307l-2.323,8.634h-18.105l20.107-61.24h20.588l20.108,61.24H453.635z
		 M435.69,45.28h11.937l-5.768-21.808h-0.32L435.69,45.28z"/>
	<path fill="#FFFFFF" d="M538.391,6.382h44.542v14.687h-26.837v10.503h23.072v14.064h-23.072v21.986h-17.705V6.382z"/>
	<path fill="#FFFFFF" d="M594.628,67.622V6.382h17.704v61.24H594.628z"/>
	<path fill="#FFFFFF" d="M626.992,6.382h17.705v45.574h28.279v15.666h-45.984V6.382z"/>
	<path fill="#FFFFFF" d="M682.428,6.382h47.666v14.687h-29.961v8.456h25.636v14.064h-25.636v9.346h30.522v14.687h-48.228V6.382
		H682.428z"/>
	<path fill="#FFFFFF" d="M782.805,10.075c4.539,3.175,6.862,7.878,6.97,14.108v1.068h-16.583v-0.356c0-1.78-0.588-3.263-1.762-4.451
		c-1.176-1.187-2.965-1.78-5.368-1.78c-2.351,0-4.153,0.387-5.407,1.157c-1.255,0.772-1.883,1.722-1.883,2.848
		c0,1.603,0.854,2.79,2.563,3.561c1.709,0.772,4.459,1.573,8.252,2.403c4.433,1.01,8.077,2.062,10.935,3.16
		c2.856,1.099,5.354,2.893,7.491,5.385c2.135,2.492,3.23,5.875,3.284,10.147c0,7.241-2.203,12.611-6.609,16.111
		c-4.406,3.502-10.294,5.252-17.664,5.252c-8.6,0-15.289-1.603-20.068-4.807c-4.78-3.205-7.17-8.871-7.17-17.001h16.743
		c0,3.086,0.722,5.149,2.163,6.187c1.442,1.039,3.686,1.558,6.729,1.558c2.243,0,4.099-0.267,5.567-0.801s2.203-1.631,2.203-3.293
		c0-1.482-0.814-2.595-2.443-3.338c-1.629-0.741-4.285-1.527-7.971-2.359c-4.486-1.068-8.199-2.181-11.136-3.338
		c-2.938-1.157-5.501-3.071-7.69-5.741c-2.19-2.67-3.284-6.29-3.284-10.859c0-6.705,2.336-11.646,7.01-14.821
		c4.673-3.174,10.587-4.762,17.744-4.762C772.471,5.313,778.266,6.902,782.805,10.075z"/>
</g>
<path opacity="0.72" fill="#FFFFFF" d="M134.9,62.036c-4.754,4.392-11.51,6.587-20.268,6.587c-8.76,0-15.529-2.195-20.308-6.587
	c-4.78-4.391-7.17-10.771-7.17-19.138V6.316h17.705v36.317c0,3.442,0.827,6.187,2.483,8.233c1.655,2.047,4.058,3.071,7.21,3.071
	c3.15,0,5.567-1.038,7.25-3.116c1.682-2.076,2.523-4.807,2.523-8.189V6.316h17.705v36.584
	C142.03,51.266,139.653,57.646,134.9,62.036z"/>
</svg>
