<?xml version="1.0" encoding="utf-8"?>
<!-- Generator: Adobe Illustrator 24.3.0, SVG Export Plug-In . SVG Version: 6.00 Build 0)  -->
<svg version="1.1" id="Layer_1" xmlns="http://www.w3.org/2000/svg" xmlns:xlink="http://www.w3.org/1999/xlink" x="0px" y="0px"
	 viewBox="0 0 800 72" enable-background="new 0 0 800 72" xml:space="preserve">
<g>
	<defs>
		<rect id="SVGID_1_" x="-528" y="-447" width="1920" height="1080"/>
	</defs>
	<clipPath id="SVGID_2_">
		<use xlink:href="#SVGID_1_"  overflow="visible"/>
	</clipPath>
	<g clip-path="url(#SVGID_2_)">
		<defs>
			<rect id="SVGID_3_" x="-528" y="-447" width="1920" height="1080"/>
		</defs>
		<clipPath id="SVGID_4_">
			<use xlink:href="#SVGID_3_"  overflow="visible"/>
		</clipPath>
	</g>
	<g clip-path="url(#SVGID_2_)">
		<defs>
			<rect id="SVGID_5_" x="-528" y="9.001" width="1920" height="113.999"/>
		</defs>
		<clipPath id="SVGID_6_">
			<use xlink:href="#SVGID_5_"  overflow="visible"/>
		</clipPath>
		<g clip-path="url(#SVGID_6_)">
			<defs>
				<rect id="SVGID_7_" x="-528" y="7.5" width="1920" height="117"/>
			</defs>
			<clipPath id="SVGID_8_">
				<use xlink:href="#SVGID_7_"  overflow="visible"/>
			</clipPath>
		</g>
	</g>
	<g clip-path="url(#SVGID_2_)">
		<defs>
			<rect id="SVGID_9_" x="-528" y="-447" width="1920" height="1080"/>
		</defs>
		<clipPath id="SVGID_10_">
			<use xlink:href="#SVGID_9_"  overflow="visible"/>
		</clipPath>
		<g opacity="0.72" clip-path="url(#SVGID_10_)">
			<g>
				<defs>
					<rect id="SVGID_11_" x="-144" y="-19.033" width="1077.71" height="133.096"/>
				</defs>
				<clipPath id="SVGID_12_">
					<use xlink:href="#SVGID_11_"  overflow="visible"/>
				</clipPath>
				<g clip-path="url(#SVGID_12_)">
					<path fill="#FFFFFF" d="M56.407,67.152V45.077c0-2.729,0.092-5.532,0.28-8.412c0.187-2.877,0.387-5.296,0.601-7.254
						c0.213-1.958,0.347-3.204,0.401-3.738h-0.321L47.194,67.152H33.334L23.081,25.761H22.76c0.053,0.534,0.201,1.767,0.441,3.694
						c0.24,1.929,0.467,4.333,0.681,7.21c0.213,2.879,0.321,5.683,0.321,8.412v22.075H7.939V5.912h24.995l8.332,35.338h0.32
						l8.251-35.338h24.113v61.24H56.407z"/>
					<path fill="#FFFFFF" d="M136.115,12.943c5.18,5.401,7.771,13.263,7.771,23.588s-2.591,18.189-7.771,23.588
						c-5.181,5.4-12.525,8.1-22.03,8.1c-9.507,0-16.837-2.685-21.991-8.056c-5.154-5.37-7.73-13.248-7.73-23.633
						c0-10.384,2.576-18.261,7.73-23.633c5.154-5.37,12.484-8.056,21.991-8.056C123.59,4.843,130.935,7.544,136.115,12.943z
						 M105.433,23.358c-1.977,2.552-2.964,5.995-2.964,10.325v5.697c0,4.333,0.988,7.775,2.964,10.326
						c1.975,2.552,4.859,3.828,8.652,3.828c3.792,0,6.689-1.275,8.692-3.828c2.003-2.551,3.004-5.993,3.004-10.326v-5.697
						c0-4.331-1.001-7.773-3.004-10.325c-2.003-2.551-4.9-3.828-8.692-3.828C110.292,19.53,107.408,20.807,105.433,23.358z"/>
					<path fill="#FFFFFF" d="M204.93,34.84c-1.816,3.026-4.46,5.252-7.931,6.676l12.257,25.635h-19.868l-9.773-22.342h-6.569v22.342
						h-17.705V5.912h33.727c3.952,0,7.33,0.846,10.134,2.537c2.804,1.691,4.913,3.977,6.329,6.854
						c1.415,2.879,2.123,6.008,2.123,9.391C207.654,28.432,206.746,31.814,204.93,34.84z M188.187,21.489
						c-0.961-1.068-2.137-1.602-3.525-1.602h-11.616v11.304h11.616c1.388,0,2.564-0.548,3.525-1.646
						c0.961-1.098,1.442-2.448,1.442-4.05C189.629,23.892,189.148,22.557,188.187,21.489z"/>
					<path fill="#FFFFFF" d="M266.055,61.633c-4.754,4.392-11.51,6.587-20.268,6.587c-8.76,0-15.529-2.195-20.308-6.587
						c-4.78-4.391-7.17-10.771-7.17-19.138V5.912h17.705v36.317c0,3.442,0.827,6.187,2.483,8.233
						c1.655,2.047,4.058,3.071,7.21,3.071c3.15,0,5.567-1.038,7.25-3.116c1.682-2.076,2.523-4.807,2.523-8.189V5.912h17.705v36.584
						C273.185,50.863,270.808,57.242,266.055,61.633z"/>
					<path fill="#FFFFFF" d="M336.551,34.84c-1.816,3.026-4.46,5.252-7.931,6.676l12.257,25.635H321.01l-9.773-22.342h-6.569v22.342
						h-17.705V5.912h33.727c3.952,0,7.33,0.846,10.134,2.537c2.804,1.691,4.913,3.977,6.329,6.854
						c1.415,2.879,2.123,6.008,2.123,9.391C339.275,28.432,338.367,31.814,336.551,34.84z M319.808,21.489
						c-0.961-1.068-2.137-1.602-3.525-1.602h-11.616v11.304h11.616c1.388,0,2.564-0.548,3.525-1.646
						c0.961-1.098,1.442-2.448,1.442-4.05C321.25,23.892,320.77,22.557,319.808,21.489z"/>
					<path fill="#FFFFFF" d="M399.358,12.943c5.18,5.401,7.771,13.263,7.771,23.588s-2.591,18.189-7.771,23.588
						c-5.181,5.4-12.525,8.1-22.03,8.1c-9.507,0-16.837-2.685-21.991-8.056c-5.154-5.37-7.73-13.248-7.73-23.633
						c0-10.384,2.576-18.261,7.73-23.633c5.154-5.37,12.484-8.056,21.991-8.056C386.833,4.843,394.178,7.544,399.358,12.943z
						 M368.676,23.358c-1.977,2.552-2.964,5.995-2.964,10.325v5.697c0,4.333,0.988,7.775,2.964,10.326
						c1.975,2.552,4.859,3.828,8.652,3.828c3.792,0,6.689-1.275,8.692-3.828c2.003-2.551,3.004-5.993,3.004-10.326v-5.697
						c0-4.331-1.001-7.773-3.004-10.325c-2.003-2.551-4.9-3.828-8.692-3.828C373.535,19.53,370.651,20.807,368.676,23.358z"/>
					<path fill="#FFFFFF" d="M452.872,67.152l-2.323-8.634h-19.307l-2.323,8.634h-18.105l20.107-61.24h20.588l20.108,61.24H452.872z
						 M434.927,44.81h11.937l-5.768-21.808h-0.32L434.927,44.81z"/>
					<path fill="#FFFFFF" d="M537.627,5.912h44.542v14.687h-26.837v10.503h23.072v14.064h-23.072v21.986h-17.705V5.912z"/>
					<path fill="#FFFFFF" d="M593.865,67.152V5.912h17.704v61.24H593.865z"/>
					<path fill="#FFFFFF" d="M626.229,5.912h17.705v45.574h28.279v15.666h-45.984V5.912z"/>
					<path fill="#FFFFFF" d="M681.665,5.912h47.666v14.687H699.37v8.456h25.636v14.064H699.37v9.346h30.522v14.687h-48.228V5.912z"
						/>
					<path fill="#FFFFFF" d="M782.042,9.605c4.539,3.175,6.862,7.878,6.97,14.108v1.068h-16.583v-0.356
						c0-1.78-0.588-3.263-1.762-4.451c-1.176-1.187-2.965-1.78-5.368-1.78c-2.351,0-4.153,0.387-5.407,1.157
						c-1.255,0.772-1.883,1.722-1.883,2.848c0,1.603,0.854,2.79,2.563,3.561c1.709,0.772,4.459,1.573,8.252,2.403
						c4.433,1.01,8.077,2.062,10.935,3.16c2.856,1.099,5.354,2.893,7.491,5.385c2.135,2.492,3.23,5.875,3.284,10.147
						c0,7.241-2.203,12.611-6.609,16.111c-4.406,3.502-10.294,5.252-17.664,5.252c-8.6,0-15.289-1.603-20.068-4.807
						c-4.78-3.205-7.17-8.871-7.17-17.001h16.743c0,3.086,0.722,5.149,2.163,6.187c1.442,1.039,3.686,1.558,6.729,1.558
						c2.243,0,4.099-0.267,5.567-0.801s2.203-1.631,2.203-3.293c0-1.482-0.814-2.595-2.443-3.338
						c-1.629-0.741-4.285-1.527-7.971-2.359c-4.486-1.068-8.199-2.181-11.136-3.338c-2.938-1.157-5.501-3.071-7.69-5.741
						c-2.19-2.67-3.284-6.29-3.284-10.859c0-6.705,2.336-11.646,7.01-14.821c4.673-3.174,10.587-4.762,17.744-4.762
						C771.708,4.843,777.502,6.432,782.042,9.605z"/>
				</g>
			</g>
		</g>
	</g>
</g>
</svg>
